# xmcd
#
# Track frame offsets:
#	150
#	17260
#	32810
#	50345
#	67701
#	85439
#	100468
#	116300
#	136755
#	152594
#	169638
#	191026
#	206516
#	232638
#
# Disc length: 3400 seconds
#
# Revision: 0
# Processed by: cddbd v1.5.2PL0 Copyright (c) Steve Scherf et al.
# Submitted via: EasyCDDAExtractor 15.3.0.1
#
DISCID=a10d460e
DTITLE=Toni Braxton - Pulse (Deluxe Edition)
DYEAR=2010
DGENRE=R&B
TTITLE0=Yesterday
TTITLE1=Make My Heart
TTITLE2=Hands Tied
TTITLE3=Woman
TTITLE4=If I Have To Wait
TTITLE5=Lookin' At Me
TTITLE6=Wardrobe
TTITLE7=Hero
TTITLE8=No Way
TTITLE9=Pulse
TTITLE10=Why Won't You Love Me
TTITLE11=The Wave (Bonus Track)
TTITLE12=Yesterday (Cutmore Remix Radio Edit) (Bonus Track)
TTITLE13=Data
EXTD=
EXTT0=
EXTT1=
EXTT2=
EXTT3=
EXTT4=
EXTT5=
EXTT6=
EXTT7=
EXTT8=
EXTT9=
EXTT10=
EXTT11=
EXTT12=
EXTT13=
PLAYORDER=
